<svg width="176" height="43" viewBox="0 0 176 43" fill="none" xmlns="http://www.w3.org/2000/svg">
<path fill-rule="evenodd" clip-rule="evenodd" d="M20.2788 39.4305L35.0498 30.9633V12.4517L27.6226 8.21815L20.9464 12.0367L20.2788 12.4517L17.5249 13.9459L11.5164 17.4324V24.3224L17.5249 20.8359L20.2788 19.2587L23.9507 17.1004L29.0412 14.195V21.583V27.3938C26.1204 29.0541 23.1996 30.7973 20.2788 32.4575V39.4305ZM17.5249 41.7548V34.1178L10.8487 37.9363L8.76245 36.7741V32.2915L11.5164 30.7143V34.4498L16.5235 31.6274L17.5249 31.0463L20.2788 29.4691L20.9464 29.0541L24.7852 26.8958L26.2873 25.9826V19.0927L20.2788 22.5792L17.5249 24.0734L13.1019 26.5637L11.5164 27.4768L6.67615 30.2992L2.0863 32.9556L0 31.7104V10.8745L9.43006 5.47876L18.8601 0L20.1119 0.747104L20.1954 6.14286L17.5249 7.63707V3.90154L2.75391 12.4517V29.3861L8.76245 25.9826V21.749C8.76245 19.8398 8.76245 17.8475 8.76245 15.9382L13.853 13.0328L17.5249 10.7915L20.2788 9.21429L27.6226 4.9807L37.7202 10.7915V21.666V32.5405L28.2902 37.9363L19.5277 43L17.5249 41.7548Z" fill="#3D3D3D"/>
<path fill-rule="evenodd" clip-rule="evenodd" d="M65.4263 21.832C65.4263 20.9189 65.2594 20.0057 64.9256 19.2586C64.5918 18.4285 64.0911 17.7644 63.5069 17.1833C62.9227 16.6023 62.1717 16.1042 61.2537 15.7722C60.4192 15.4401 59.4178 15.2741 58.4163 15.2741H53.4927V28.3899H58.4163C59.4178 28.3899 60.4192 28.2239 61.2537 27.8918C62.0882 27.5598 62.8393 27.0617 63.5069 26.4806C64.0911 25.8996 64.5918 25.2355 64.9256 24.4054C65.2594 23.5752 65.4263 22.7451 65.4263 21.832ZM63.0062 21.832C63.0062 22.4961 62.9227 23.0772 62.6724 23.6583C62.422 24.2393 62.1717 24.6544 61.7544 25.0695C61.3372 25.4845 60.8364 25.7335 60.3357 25.9826C59.7516 26.2316 59.1674 26.3146 58.4163 26.3146H55.8293V17.3494H58.4163C59.084 17.3494 59.7516 17.4324 60.3357 17.6814C60.9199 17.9305 61.4206 18.2625 61.7544 18.5945C62.1717 19.0096 62.422 19.5077 62.6724 20.0057C62.9227 20.5868 63.0062 21.1679 63.0062 21.832ZM70.5169 24.6544C70.5169 23.9903 70.6003 23.4092 70.7672 22.9111C70.9341 22.4131 71.1845 21.998 71.4348 21.666C71.7686 21.3339 72.1024 21.0849 72.5197 20.9189C72.937 20.7528 73.3542 20.6698 73.9384 20.6698H74.1053V18.2625C73.1873 18.2625 72.5197 18.4285 71.9355 18.8436C71.3514 19.2586 70.9341 19.9227 70.6003 20.6698V18.4285H68.2637V28.3069H70.6003V24.6544H70.5169ZM84.203 28.3899V22.4961C84.203 21.1679 83.8692 20.1718 83.1181 19.4247C82.367 18.6776 81.2822 18.3455 79.78 18.3455C78.9455 18.3455 78.2779 18.4285 77.6937 18.5945C77.1096 18.7606 76.5254 18.9266 76.0247 19.1756L76.6089 21.0019C77.0261 20.8359 77.5268 20.6698 77.9441 20.5868C78.3613 20.5038 78.862 20.4208 79.4462 20.4208C80.1973 20.4208 80.8649 20.5868 81.2822 21.0019C81.6994 21.3339 81.9498 21.915 81.9498 22.5791V22.8281C81.5325 22.6621 81.1152 22.5791 80.698 22.4961C80.2807 22.4131 79.78 22.4131 79.1959 22.4131C78.6117 22.4131 78.111 22.4961 77.6103 22.5791C77.1096 22.7451 76.6923 22.9111 76.3585 23.1602C76.0247 23.4092 75.6909 23.7413 75.524 24.1563C75.3571 24.5714 75.1902 24.9864 75.1902 25.5675C75.1902 26.0656 75.2736 26.4806 75.524 26.8957C75.6909 27.3108 75.9412 27.5598 76.275 27.8918C76.6089 28.1409 76.9427 28.3069 77.3599 28.4729C77.7772 28.6389 78.2779 28.6389 78.6951 28.6389C79.4462 28.6389 80.1138 28.4729 80.6145 28.2239C81.1152 27.9749 81.616 27.6428 81.9498 27.2278V28.4729H84.203V28.3899ZM81.9498 24.8204C81.9498 25.1525 81.8663 25.4015 81.7829 25.6505C81.616 25.8996 81.4491 26.1486 81.1987 26.3146C80.9483 26.4806 80.698 26.6467 80.3642 26.7297C80.0304 26.8127 79.6966 26.8957 79.2793 26.8957C78.7786 26.8957 78.2779 26.7297 77.9441 26.4806C77.6103 26.2316 77.3599 25.8996 77.3599 25.4015C77.3599 24.9034 77.5268 24.4884 77.9441 24.2393C78.3613 23.9903 78.9455 23.8243 79.6131 23.8243C80.0304 23.8243 80.4476 23.8243 80.8649 23.9073C81.2822 23.9903 81.616 24.0733 81.8663 24.1563V24.8204H81.9498ZM89.9612 18.5115V17.9305C89.9612 16.9343 90.3784 16.4362 91.2964 16.4362C91.5467 16.4362 91.7971 16.4362 91.964 16.5193C92.1309 16.6023 92.3813 16.6023 92.6316 16.6853V14.776C92.3813 14.693 92.1309 14.61 91.7971 14.61C91.5467 14.527 91.1295 14.527 90.7957 14.527C89.7943 14.527 89.0432 14.776 88.5425 15.3571C88.0418 15.8552 87.7079 16.6853 87.7079 17.8474V18.5945H86.4562V20.5038H87.7079V28.4729H90.0446V20.5038H92.6316V18.5945H89.9612V18.5115ZM97.3049 20.4208H99.9754V18.5115H97.3049V15.7722H94.9683V18.5115H93.7165V20.4208H94.9683V25.6505C94.9683 26.2316 95.0517 26.6467 95.2186 27.0617C95.3855 27.3938 95.5524 27.7258 95.8028 27.9749C96.0531 28.2239 96.3869 28.3899 96.7208 28.4729C97.0546 28.5559 97.4718 28.6389 97.8891 28.6389C98.3063 28.6389 98.7236 28.5559 99.0574 28.4729C99.3912 28.3899 99.725 28.2239 99.9754 28.0579V26.2316C99.5581 26.4806 99.0574 26.5637 98.5567 26.5637C98.1394 26.5637 97.8891 26.4806 97.6387 26.2316C97.3884 26.0656 97.3049 25.7335 97.3049 25.3185V20.4208ZM108.237 18.5115C108.237 18.1795 108.321 17.9305 108.404 17.6814C108.571 17.4324 108.738 17.1833 108.988 17.0173C109.239 16.8513 109.489 16.6853 109.906 16.6023C110.24 16.5193 110.657 16.4362 111.074 16.4362C111.742 16.4362 112.41 16.5193 112.994 16.7683C113.578 17.0173 114.246 17.3494 114.83 17.8474L115.664 16.6853C114.997 16.1872 114.246 15.7722 113.578 15.5231C112.827 15.2741 111.992 15.1081 111.074 15.1081C110.407 15.1081 109.906 15.1911 109.322 15.3571C108.821 15.5231 108.321 15.7722 107.903 16.1042C107.486 16.4362 107.236 16.7683 106.985 17.2664C106.735 17.6814 106.652 18.1795 106.652 18.6776C106.652 19.2586 106.735 19.6737 106.902 20.0888C107.069 20.5038 107.319 20.8359 107.736 21.1679C108.07 21.5 108.571 21.749 109.155 21.915C109.739 22.164 110.407 22.3301 111.158 22.4961C111.826 22.6621 112.41 22.8281 112.91 22.9942C113.328 23.1602 113.745 23.3262 113.995 23.5752C114.246 23.7413 114.413 23.9903 114.496 24.2393C114.579 24.4884 114.663 24.7374 114.663 25.0695C114.663 25.7335 114.413 26.3146 113.828 26.7297C113.328 27.1447 112.577 27.3108 111.659 27.3108C110.741 27.3108 109.906 27.1447 109.239 26.8127C108.571 26.4806 107.82 26.0656 107.152 25.4015L106.234 26.4806C106.985 27.2278 107.82 27.7258 108.738 28.0579C109.572 28.3899 110.574 28.5559 111.659 28.5559C112.326 28.5559 112.91 28.4729 113.495 28.3069C114.079 28.1409 114.496 27.8918 114.913 27.5598C115.331 27.2278 115.581 26.8127 115.831 26.3976C116.082 25.8996 116.165 25.4015 116.165 24.8204C116.165 23.8243 115.831 22.9942 115.08 22.4131C114.413 21.832 113.328 21.4169 111.826 21.0849C111.074 20.9189 110.49 20.7528 110.073 20.5868C109.572 20.4208 109.239 20.2548 108.988 20.0057C108.738 19.8397 108.571 19.5907 108.404 19.3416C108.321 19.0926 108.237 18.8436 108.237 18.5115ZM121.089 19.9227H124.176V18.6776H121.089V15.7722H119.67V18.6776H118.335V19.9227H119.67V25.8166C119.67 26.3146 119.753 26.7297 119.837 27.0617C120.004 27.3938 120.171 27.7258 120.421 27.8918C120.671 28.1409 120.922 28.3069 121.339 28.3899C121.673 28.4729 122.007 28.5559 122.424 28.5559C122.758 28.5559 123.092 28.5559 123.342 28.4729C123.592 28.3899 123.926 28.3069 124.176 28.1409V26.8957C123.926 27.0617 123.676 27.1447 123.509 27.1447C123.258 27.2278 123.092 27.2278 122.841 27.2278C122.34 27.2278 121.923 27.1447 121.673 26.8957C121.339 26.6467 121.256 26.2316 121.256 25.6505V19.9227H121.089ZM133.94 24.2393C133.94 24.6544 133.857 25.0695 133.69 25.4845C133.523 25.8996 133.356 26.1486 133.106 26.4806C132.855 26.7297 132.522 26.9787 132.188 27.0617C131.854 27.2277 131.437 27.3108 131.019 27.3108C130.185 27.3108 129.517 27.0617 129.017 26.5637C128.516 26.0656 128.349 25.3185 128.349 24.4054V18.7606H126.847V24.8204C126.847 25.4015 126.93 25.8996 127.097 26.3976C127.264 26.8957 127.514 27.3108 127.848 27.6428C128.182 27.9749 128.599 28.2239 129.017 28.4729C129.517 28.6389 130.018 28.722 130.602 28.722C131.437 28.722 132.104 28.5559 132.689 28.1409C133.189 27.8088 133.606 27.3108 133.94 26.8127V28.4729H135.359V18.6776H133.94V24.2393ZM148.127 28.3899V14.693H146.708V20.5868C146.542 20.3378 146.291 20.0888 146.041 19.8397C145.79 19.5907 145.54 19.3417 145.206 19.1756C144.872 19.0096 144.539 18.8436 144.205 18.7606C143.788 18.6776 143.454 18.5945 142.953 18.5945C142.369 18.5945 141.785 18.6776 141.201 18.9266C140.616 19.1756 140.116 19.5077 139.698 19.9227C139.281 20.3378 138.947 20.9189 138.614 21.5C138.363 22.164 138.196 22.8281 138.196 23.6583C138.196 24.4884 138.363 25.1525 138.614 25.8166C138.864 26.4806 139.198 26.9787 139.698 27.3938C140.116 27.8088 140.616 28.1409 141.201 28.3899C141.785 28.6389 142.285 28.722 142.953 28.722C143.37 28.722 143.788 28.6389 144.205 28.5559C144.539 28.4729 144.872 28.3069 145.206 28.0579C145.54 27.8918 145.79 27.6428 146.041 27.3938C146.291 27.1447 146.542 26.8957 146.708 26.5637V28.5559H148.127V28.3899ZM146.792 23.4922C146.792 24.0733 146.708 24.5714 146.458 25.0695C146.291 25.5675 145.957 25.8996 145.707 26.2316C145.373 26.5637 144.956 26.8127 144.539 26.9787C144.121 27.1447 143.704 27.2278 143.203 27.2278C142.703 27.2278 142.285 27.1447 141.868 26.9787C141.451 26.8127 141.117 26.5637 140.783 26.2316C140.45 25.8996 140.199 25.4845 140.032 25.0695C139.865 24.5714 139.782 24.0733 139.782 23.4922C139.782 22.9111 139.865 22.4131 140.032 21.915C140.199 21.4169 140.45 21.0849 140.783 20.7528C141.117 20.4208 141.451 20.1718 141.868 20.0057C142.285 19.8397 142.703 19.7567 143.203 19.7567C143.621 19.7567 144.121 19.8397 144.539 20.0057C144.956 20.1718 145.373 20.4208 145.707 20.7528C146.041 21.0849 146.291 21.5 146.458 21.915C146.625 22.4961 146.792 22.9942 146.792 23.4922ZM153.385 16.6023V14.942H151.716V16.6023H153.385ZM153.218 28.3899V18.6776H151.799V28.3899H153.218ZM166.487 23.4922C166.487 22.8281 166.32 22.164 166.069 21.5C165.819 20.9189 165.485 20.3378 164.984 19.9227C164.567 19.5077 163.983 19.0926 163.399 18.8436C162.815 18.5945 162.064 18.4285 161.396 18.4285C160.645 18.4285 159.977 18.5945 159.31 18.8436C158.726 19.0926 158.141 19.5077 157.724 19.9227C157.307 20.4208 156.89 20.9189 156.639 21.583C156.389 22.164 156.222 22.8281 156.222 23.5752C156.222 24.2393 156.389 24.9034 156.639 25.5675C156.89 26.1486 157.223 26.7297 157.724 27.1447C158.141 27.6428 158.726 27.9749 159.31 28.2239C159.894 28.4729 160.561 28.6389 161.313 28.6389C162.064 28.6389 162.731 28.4729 163.315 28.2239C163.983 27.9749 164.484 27.5598 164.901 27.1447C165.318 26.6467 165.735 26.1486 165.986 25.4845C166.32 24.9034 166.487 24.2393 166.487 23.4922ZM164.984 23.5752C164.984 24.0733 164.901 24.5714 164.734 25.0695C164.567 25.4845 164.317 25.8996 163.983 26.2316C163.649 26.5637 163.315 26.8127 162.815 27.0617C162.397 27.2277 161.897 27.3938 161.396 27.3938C160.895 27.3938 160.395 27.3108 159.977 27.0617C159.56 26.8957 159.143 26.5637 158.809 26.2316C158.475 25.8996 158.225 25.4845 158.058 25.0695C157.891 24.5714 157.808 24.1563 157.808 23.5752C157.808 23.0772 157.891 22.5791 158.058 22.081C158.225 21.666 158.475 21.2509 158.809 20.9189C159.143 20.5868 159.477 20.3378 159.894 20.0888C160.311 19.9227 160.812 19.7567 161.313 19.7567C161.813 19.7567 162.314 19.8397 162.731 20.0888C163.148 20.2548 163.566 20.5868 163.9 20.9189C164.233 21.2509 164.484 21.666 164.651 22.164C164.901 22.4961 164.984 22.9942 164.984 23.5752ZM176 25.6505C176 25.1525 175.917 24.8204 175.75 24.4884C175.583 24.1563 175.332 23.9073 174.999 23.7413C174.665 23.4922 174.331 23.3262 173.997 23.2432C173.663 23.0772 173.246 22.9942 172.912 22.8281C172.579 22.7451 172.245 22.6621 171.994 22.4961C171.661 22.4131 171.41 22.2471 171.16 22.164C170.909 21.998 170.743 21.915 170.576 21.749C170.409 21.583 170.409 21.4169 170.409 21.1679C170.409 20.7528 170.576 20.4208 170.909 20.1718C171.243 19.9227 171.744 19.7567 172.328 19.7567C172.829 19.7567 173.33 19.8397 173.83 20.0057C174.331 20.1718 174.832 20.4208 175.249 20.6698L175.917 19.5907C175.416 19.2586 174.832 19.0096 174.248 18.8436C173.663 18.6776 172.996 18.5945 172.412 18.5945C171.911 18.5945 171.494 18.6776 171.076 18.7606C170.659 18.9266 170.325 19.0926 169.992 19.3416C169.658 19.5907 169.491 19.8397 169.324 20.2548C169.157 20.5868 169.074 21.0019 169.074 21.4169C169.074 21.832 169.157 22.2471 169.407 22.5791C169.574 22.9111 169.825 23.1602 170.158 23.3262C170.492 23.4922 170.826 23.6583 171.16 23.8243C171.577 23.9903 171.911 24.0733 172.328 24.1563C172.662 24.2393 172.912 24.3223 173.246 24.4054C173.58 24.4884 173.83 24.6544 173.997 24.7374C174.248 24.9034 174.414 24.9864 174.498 25.2355C174.665 25.4015 174.665 25.6505 174.665 25.8166C174.665 26.3146 174.498 26.6467 174.081 26.9787C173.663 27.2278 173.246 27.3938 172.662 27.3938C172.078 27.3938 171.494 27.3108 170.909 27.0617C170.325 26.8127 169.825 26.5637 169.24 26.1486L168.489 27.1447C169.074 27.5598 169.658 27.8918 170.409 28.2239C171.16 28.4729 171.827 28.6389 172.579 28.6389C173.079 28.6389 173.496 28.5559 173.914 28.4729C174.331 28.3069 174.665 28.1409 174.999 27.8918C175.332 27.6428 175.583 27.3108 175.75 26.9787C175.917 26.5637 176 26.1486 176 25.6505Z" fill="#3D3D3D"/>
</svg>
